<svg xmlns="http://www.w3.org/2000/svg" width="340" height="200" viewBox="0 0 340 200"><style>* {
          font-family: 'Segoe UI', Ubuntu, "Helvetica Neue", Sans-Serif
        }</style><rect x="1" y="1" rx="5" ry="5" height="99%" width="99.41176470588235%" stroke="#e4e2e2" stroke-width="1" fill="#ffffff" stroke-opacity="1"></rect><text x="30" y="40" style="font-size: 22px; fill: #111111;">Top Languages by Commit</text><g transform="translate(0,40)"><g transform="translate(40,0)"><rect y="18" width="14" height="14" fill="#111111" stroke="#ffffff" style="stroke-width: 1px;"></rect><rect y="43.2" width="14" height="14" fill="#333333" stroke="#ffffff" style="stroke-width: 1px;"></rect><rect y="68.4" width="14" height="14" fill="#666666" stroke="#ffffff" style="stroke-width: 1px;"></rect><rect y="93.60000000000002" width="14" height="14" fill="#999999" stroke="#ffffff" style="stroke-width: 1px;"></rect><rect y="118.80000000000001" width="14" height="14" fill="#c7c7c7" stroke="#ffffff" style="stroke-width: 1px;"></rect><text x="16.8" y="30" style="fill: #333333; font-size: 14px;">Vue</text><text x="16.8" y="55.2" style="fill: #333333; font-size: 14px;">TypeScript</text><text x="16.8" y="80.4" style="fill: #333333; font-size: 14px;">JavaScript</text><text x="16.8" y="105.60000000000002" style="fill: #333333; font-size: 14px;">Java</text><text x="16.8" y="130.8" style="fill: #333333; font-size: 14px;">Python</text></g><g transform="translate( 230, 80 )"><g class="arc"><path d="M3.67394039744206e-15,-60A60,60,0,0,1,10.072644055112443,59.148472860582025L5.875709032148926,34.503275835339515A35,35,0,0,0,2.1431318985078682e-15,-35Z" style="fill: #111111; stroke-width: 2px;" stroke="#ffffff"></path></g><g class="arc"><path d="M10.072644055112443,59.148472860582025A60,60,0,0,1,-53.373974702360634,27.408371430491222L-31.134818576377036,15.988216667786547A35,35,0,0,0,5.875709032148926,34.503275835339515Z" style="fill: #333333; stroke-width: 2px;" stroke="#ffffff"></path></g><g class="arc"><path d="M-53.373974702360634,27.408371430491222A60,60,0,0,1,-43.96261946567607,-40.83243918401348L-25.644861354977706,-23.8189228573412A35,35,0,0,0,-31.134818576377036,15.988216667786547Z" style="fill: #666666; stroke-width: 2px;" stroke="#ffffff"></path></g><g class="arc"><path d="M-43.96261946567607,-40.83243918401348A60,60,0,0,1,-13.79135652209061,-58.39347981821762L-8.044957971219523,-34.06286322729361A35,35,0,0,0,-25.644861354977706,-23.8189228573412Z" style="fill: #999999; stroke-width: 2px;" stroke="#ffffff"></path></g><g class="arc"><path d="M-13.79135652209061,-58.39347981821762A60,60,0,0,1,-1.1021821192326178e-14,-60L-6.429395695523604e-15,-35A35,35,0,0,0,-8.044957971219523,-34.06286322729361Z" style="fill: #c7c7c7; stroke-width: 2px;" stroke="#ffffff"></path></g></g></g></svg>