<svg xmlns="http://www.w3.org/2000/svg" width="340" height="200" viewBox="0 0 340 200"><style>* {
          font-family: 'Segoe UI', Ubuntu, "Helvetica Neue", Sans-Serif
        }</style><rect x="1" y="1" rx="5" ry="5" height="99%" width="99.41176470588235%" stroke="#e4e2e2" stroke-width="1" fill="#ffffff" stroke-opacity="1"></rect><text x="30" y="40" style="font-size: 22px; fill: red;">Top Languages by Commit</text><g transform="translate(0,40)"><g transform="translate(40,0)"><rect y="18" width="14" height="14" fill="#41b883" stroke="#ffffff" style="stroke-width: 1px;"></rect><rect y="43.2" width="14" height="14" fill="#f1e05a" stroke="#ffffff" style="stroke-width: 1px;"></rect><rect y="68.4" width="14" height="14" fill="#3178c6" stroke="#ffffff" style="stroke-width: 1px;"></rect><rect y="93.60000000000002" width="14" height="14" fill="#b07219" stroke="#ffffff" style="stroke-width: 1px;"></rect><rect y="118.80000000000001" width="14" height="14" fill="#3572A5" stroke="#ffffff" style="stroke-width: 1px;"></rect><text x="16.8" y="30" style="fill: #586069; font-size: 14px;">Vue</text><text x="16.8" y="55.2" style="fill: #586069; font-size: 14px;">JavaScript</text><text x="16.8" y="80.4" style="fill: #586069; font-size: 14px;">TypeScript</text><text x="16.8" y="105.60000000000002" style="fill: #586069; font-size: 14px;">Java</text><text x="16.8" y="130.8" style="fill: #586069; font-size: 14px;">Python</text></g><g transform="translate( 230, 80 )"><g class="arc"><path d="M3.67394039744206e-15,-60A60,60,0,0,1,8.070366338524849,59.45476589107054L4.707713697472829,34.681946769791146A35,35,0,0,0,2.1431318985078682e-15,-35Z" style="fill: #41b883; stroke-width: 2px;" stroke="#ffffff"></path></g><g class="arc"><path d="M8.070366338524849,59.45476589107054A60,60,0,0,1,-52.34269579673819,29.329885726509847L-30.533239214763945,17.109100007130746A35,35,0,0,0,4.707713697472829,34.681946769791146Z" style="fill: #f1e05a; stroke-width: 2px;" stroke="#ffffff"></path></g><g class="arc"><path d="M-52.34269579673819,29.329885726509847A60,60,0,0,1,-47.92199670370979,-36.103770328452235L-27.954498077164043,-21.060532691597135A35,35,0,0,0,-30.533239214763945,17.109100007130746Z" style="fill: #3178c6; stroke-width: 2px;" stroke="#ffffff"></path></g><g class="arc"><path d="M-47.92199670370979,-36.103770328452235A60,60,0,0,1,-22.559764339654418,-55.597275409315316L-13.159862531465079,-32.431743988767266A35,35,0,0,0,-27.954498077164043,-21.060532691597135Z" style="fill: #b07219; stroke-width: 2px;" stroke="#ffffff"></path></g><g class="arc"><path d="M-22.559764339654418,-55.597275409315316A60,60,0,0,1,-6.431252637433369e-14,-60L-3.7515640385027985e-14,-35A35,35,0,0,0,-13.159862531465079,-32.431743988767266Z" style="fill: #3572A5; stroke-width: 2px;" stroke="#ffffff"></path></g></g></g></svg>