<svg xmlns="http://www.w3.org/2000/svg" width="340" height="200" viewBox="0 0 340 200"><style>* {
          font-family: 'Segoe UI', Ubuntu, "Helvetica Neue", Sans-Serif
        }</style><rect x="1" y="1" rx="5" ry="5" height="99%" width="99.41176470588235%" stroke="#e4e2e2" stroke-width="1" fill="#ffffff" stroke-opacity="1"></rect><text x="30" y="40" style="font-size: 22px; fill: #0366d6;">Top Languages by Commit</text><g transform="translate(0,40)"><g transform="translate(40,0)"><rect y="18" width="14" height="14" fill="#41b883" stroke="#ffffff" style="stroke-width: 1px;"></rect><rect y="43.2" width="14" height="14" fill="#3178c6" stroke="#ffffff" style="stroke-width: 1px;"></rect><rect y="68.4" width="14" height="14" fill="#f1e05a" stroke="#ffffff" style="stroke-width: 1px;"></rect><rect y="93.60000000000002" width="14" height="14" fill="#b07219" stroke="#ffffff" style="stroke-width: 1px;"></rect><rect y="118.80000000000001" width="14" height="14" fill="#3572A5" stroke="#ffffff" style="stroke-width: 1px;"></rect><text x="16.8" y="30" style="fill: #586069; font-size: 14px;">Vue</text><text x="16.8" y="55.2" style="fill: #586069; font-size: 14px;">TypeScript</text><text x="16.8" y="80.4" style="fill: #586069; font-size: 14px;">JavaScript</text><text x="16.8" y="105.60000000000002" style="fill: #586069; font-size: 14px;">Java</text><text x="16.8" y="130.8" style="fill: #586069; font-size: 14px;">Python</text></g><g transform="translate( 230, 80 )"><g class="arc"><path d="M3.67394039744206e-15,-60A60,60,0,0,1,15.182910130211283,58.047215609173946L8.85669757595658,33.86087577201814A35,35,0,0,0,2.1431318985078682e-15,-35Z" style="fill: #41b883; stroke-width: 2px;" stroke="#ffffff"></path></g><g class="arc"><path d="M15.182910130211283,58.047215609173946A60,60,0,0,1,-49.56608989145248,33.811281148049574L-28.91355243668061,19.723247336362252A35,35,0,0,0,8.85669757595658,33.86087577201814Z" style="fill: #3178c6; stroke-width: 2px;" stroke="#ffffff"></path></g><g class="arc"><path d="M-49.56608989145248,33.811281148049574A60,60,0,0,1,-49.90948626479235,-33.30229993235457L-29.11386698779554,-19.426341627206835A35,35,0,0,0,-28.91355243668061,19.723247336362252Z" style="fill: #f1e05a; stroke-width: 2px;" stroke="#ffffff"></path></g><g class="arc"><path d="M-49.90948626479235,-33.30229993235457A60,60,0,0,1,-23.879577788791728,-55.0433080821733L-13.929753710128509,-32.10859638126776A35,35,0,0,0,-29.11386698779554,-19.426341627206835Z" style="fill: #b07219; stroke-width: 2px;" stroke="#ffffff"></path></g><g class="arc"><path d="M-23.879577788791728,-55.0433080821733A60,60,0,0,1,-1.1021821192326178e-14,-60L-6.429395695523604e-15,-35A35,35,0,0,0,-13.929753710128509,-32.10859638126776Z" style="fill: #3572A5; stroke-width: 2px;" stroke="#ffffff"></path></g></g></g></svg>