<svg xmlns="http://www.w3.org/2000/svg" width="340" height="200" viewBox="0 0 340 200"><style>* {
          font-family: 'Segoe UI', Ubuntu, "Helvetica Neue", Sans-Serif
        }</style><rect x="1" y="1" rx="5" ry="5" height="99%" width="99.41176470588235%" stroke="#e4e2e2" stroke-width="1" fill="#ffffff" stroke-opacity="1"></rect><text x="30" y="40" style="font-size: 22px; fill: #0366d6;">Top Languages by Commit</text><g transform="translate(0,40)"><g transform="translate(40,0)"><rect y="18" width="14" height="14" fill="#41b883" stroke="#ffffff" style="stroke-width: 1px;"></rect><rect y="43.2" width="14" height="14" fill="#f1e05a" stroke="#ffffff" style="stroke-width: 1px;"></rect><rect y="68.4" width="14" height="14" fill="#3178c6" stroke="#ffffff" style="stroke-width: 1px;"></rect><rect y="93.60000000000002" width="14" height="14" fill="#b07219" stroke="#ffffff" style="stroke-width: 1px;"></rect><rect y="118.80000000000001" width="14" height="14" fill="#e34c26" stroke="#ffffff" style="stroke-width: 1px;"></rect><text x="16.8" y="30" style="fill: #586069; font-size: 14px;">Vue</text><text x="16.8" y="55.2" style="fill: #586069; font-size: 14px;">JavaScript</text><text x="16.8" y="80.4" style="fill: #586069; font-size: 14px;">TypeScript</text><text x="16.8" y="105.60000000000002" style="fill: #586069; font-size: 14px;">Java</text><text x="16.8" y="130.8" style="fill: #586069; font-size: 14px;">HTML</text></g><g transform="translate( 230, 80 )"><g class="arc"><path d="M3.67394039744206e-15,-60A60,60,0,0,1,4.1329907584084475,59.85748397143761L2.410911275738261,34.91686565000527A35,35,0,0,0,2.1431318985078682e-15,-35Z" style="fill: #41b883; stroke-width: 2px;" stroke="#ffffff"></path></g><g class="arc"><path d="M4.1329907584084475,59.85748397143761A60,60,0,0,1,-56.95283742409906,18.877878835932318L-33.22248849739112,11.012095987627184A35,35,0,0,0,2.410911275738261,34.91686565000527Z" style="fill: #f1e05a; stroke-width: 2px;" stroke="#ffffff"></path></g><g class="arc"><path d="M-56.95283742409906,18.877878835932318A60,60,0,0,1,-39.06788420075997,-45.537900962560954L-22.789599117109983,-26.563775561493888A35,35,0,0,0,-33.22248849739112,11.012095987627184Z" style="fill: #3178c6; stroke-width: 2px;" stroke="#ffffff"></path></g><g class="arc"><path d="M-39.06788420075997,-45.537900962560954A60,60,0,0,1,-12.89822641266146,-58.5972333426052L-7.523965407385851,-34.181719449853034A35,35,0,0,0,-22.789599117109983,-26.563775561493888Z" style="fill: #b07219; stroke-width: 2px;" stroke="#ffffff"></path></g><g class="arc"><path d="M-12.89822641266146,-58.5972333426052A60,60,0,0,1,-1.1021821192326178e-14,-60L-6.429395695523604e-15,-35A35,35,0,0,0,-7.523965407385851,-34.181719449853034Z" style="fill: #e34c26; stroke-width: 2px;" stroke="#ffffff"></path></g></g></g></svg>