<svg xmlns="http://www.w3.org/2000/svg" width="340" height="200" viewBox="0 0 340 200"><style>* {
          font-family: 'Segoe UI', Ubuntu, "Helvetica Neue", Sans-Serif
        }</style><g class="gpsc-root"><rect x="1" y="1" rx="5" ry="5" height="99%" width="99.41176470588235%" stroke="#e4e2e2" stroke-width="1" fill="#ffffff" stroke-opacity="1"></rect><text x="30" y="40" class="gpsc-item" style="--gpsc-i: 0; font-size: 22px; fill: #0366d6;">Top Languages by Commit</text><g transform="translate(0,40)"><g transform="translate(40,0)"><rect y="18" width="14" height="14" class="gpsc-item" style="--gpsc-i: 0; stroke-width: 1px;" fill="#41b883" stroke="#ffffff"></rect><rect y="43.2" width="14" height="14" class="gpsc-item" style="--gpsc-i: 1; stroke-width: 1px;" fill="#f1e05a" stroke="#ffffff"></rect><rect y="68.4" width="14" height="14" class="gpsc-item" style="--gpsc-i: 2; stroke-width: 1px;" fill="#3178c6" stroke="#ffffff"></rect><rect y="93.60000000000002" width="14" height="14" class="gpsc-item" style="--gpsc-i: 3; stroke-width: 1px;" fill="#b07219" stroke="#ffffff"></rect><rect y="118.80000000000001" width="14" height="14" class="gpsc-item" style="--gpsc-i: 4; stroke-width: 1px;" fill="#e34c26" stroke="#ffffff"></rect><text x="16.8" y="30" class="gpsc-item" style="--gpsc-i: 0; fill: #586069; font-size: 14px;">Vue</text><text x="16.8" y="55.2" class="gpsc-item" style="--gpsc-i: 1; fill: #586069; font-size: 14px;">JavaScript</text><text x="16.8" y="80.4" class="gpsc-item" style="--gpsc-i: 2; fill: #586069; font-size: 14px;">TypeScript</text><text x="16.8" y="105.60000000000002" class="gpsc-item" style="--gpsc-i: 3; fill: #586069; font-size: 14px;">Java</text><text x="16.8" y="130.8" class="gpsc-item" style="--gpsc-i: 4; fill: #586069; font-size: 14px;">HTML</text></g><g transform="translate( 230, 80 )"><g class="arc" style="--gpsc-i: 0;"><path d="M3.67394039744206e-15,-60A60,60,0,0,1,0.602212122442183,59.9969777618805L0.3512904047579401,34.99823702776362A35,35,0,0,0,2.1431318985078682e-15,-35Z" style="fill: #41b883; stroke-width: 2px;" stroke="#ffffff"></path></g><g class="arc" style="--gpsc-i: 1;"><path d="M0.602212122442183,59.9969777618805A60,60,0,0,1,-58.33867873746071,14.021360959883658L-34.030895930185416,8.1791272265988A35,35,0,0,0,0.3512904047579401,34.99823702776362Z" style="fill: #f1e05a; stroke-width: 2px;" stroke="#ffffff"></path></g><g class="arc" style="--gpsc-i: 2;"><path d="M-58.33867873746071,14.021360959883658A60,60,0,0,1,-33.988509989227616,-49.444728624112955L-19.826630827049442,-28.84275836406589A35,35,0,0,0,-34.030895930185416,8.1791272265988Z" style="fill: #3178c6; stroke-width: 2px;" stroke="#ffffff"></path></g><g class="arc" style="--gpsc-i: 3;"><path d="M-33.988509989227616,-49.444728624112955A60,60,0,0,1,-13.141483825903736,-58.54315846325265L-7.665865565110512,-34.15017577023072A35,35,0,0,0,-19.826630827049442,-28.84275836406589Z" style="fill: #b07219; stroke-width: 2px;" stroke="#ffffff"></path></g><g class="arc" style="--gpsc-i: 4;"><path d="M-13.141483825903736,-58.54315846325265A60,60,0,0,1,4.226888398968133e-14,-60L2.4656848993980778e-14,-35A35,35,0,0,0,-7.665865565110512,-34.15017577023072Z" style="fill: #e34c26; stroke-width: 2px;" stroke="#ffffff"></path></g></g></g></g></svg>